<svg xmlns="http://www.w3.org/2000/svg" viewBox="0 0 20 20">
    <defs>
        <style>.cls-1{fill:none;}</style>
    </defs>
    <g id="Layer_2" data-name="Layer 2">
        <g id="Layer_1-2" data-name="Layer 1">
            <rect class="cls-1" width="20" height="20"/>
            <path id="Path_3838" data-name="Path 3838" d="M5,15l0,0H5a7.84,7.84,0,0,1-2-1.45h0c-1.16-1.15.25-2.73,1.63-1.89a6.26,6.26,0,0,1-.86-1.18A1.15,1.15,0,0,1,5.34,8.87a7.89,7.89,0,0,0,4.59,1c2.79-.52,3.55-2.51,2.67-5.17,0,0-.13-.39-.15-.43l0,0a1.57,1.57,0,0,1,.09-1.24A1.8,1.8,0,0,1,13,2.39a1.67,1.67,0,0,1,.71-.27,1.29,1.29,0,0,1,1,.39,10.82,10.82,0,0,1,1.54,2,8.92,8.92,0,0,1-3.19,12.19,8.81,8.81,0,0,1-2.2.91A8.57,8.57,0,0,1,8,17.86a9,9,0,0,1-2.8-.63l-.06,0a1.28,1.28,0,0,1-.62-1.7,1.43,1.43,0,0,1,.31-.42L5,15Zm3.77.31h0l.16,0A7.57,7.57,0,0,0,14.3,6a6.44,6.44,0,0,0-.37-1A9,9,0,0,1,8.81,15.26ZM11.9,11h0a10.75,10.75,0,0,1-1.15.86A8.18,8.18,0,0,1,5.48,13a8.41,8.41,0,0,1-.85-.15,8.19,8.19,0,0,1-.81-.23h0a7,7,0,0,0,1.73,1.22h0a6.56,6.56,0,0,0,1.89.62A7.63,7.63,0,0,0,11.9,11Zm2-7.59h0a7,7,0,0,1,.49.79A9.52,9.52,0,0,1,15,5.77,8.31,8.31,0,0,1,9.14,15.92a8,8,0,0,1-2,.26A7,7,0,0,1,5.76,16c-.2,0-.13.05,0,.09a7.69,7.69,0,0,0,9.47-11,8.42,8.42,0,0,0-1.3-1.67ZM6.75,11.85h0a6.65,6.65,0,0,0,2.9-.76A7.84,7.84,0,0,1,4.87,10a6.47,6.47,0,0,0,1.88,1.84Z"/>
        </g>
    </g>
</svg>