<svg xmlns="http://www.w3.org/2000/svg" viewBox="0 0 20 20">
    <defs>
        <style>.cls-1{fill:none;}</style>
    </defs>
    <g id="Layer_2" data-name="Layer 2">
        <g id="Layer_1-2" data-name="Layer 1">
            <rect class="cls-1" width="20" height="20"/>
            <path id="Path_3869" data-name="Path 3869" d="M10,17.88H3.47a.62.62,0,0,1-.61-.6A.67.67,0,0,1,3,16.86a5,5,0,0,0,.76-1.57,6,6,0,0,0,.36-1.89V10.54a5.48,5.48,0,0,1,.44-2.23A5.77,5.77,0,0,1,5.86,6.39a6,6,0,0,1,1.9-1.27,7.07,7.07,0,0,1,1-.31L7.12,3.16a.6.6,0,0,1,0-.86h0a.63.63,0,0,1,.43-.17h4.91a.59.59,0,0,1,.6.59h0a.64.64,0,0,1-.17.44L11.23,4.81a7.07,7.07,0,0,1,1,.31,6.46,6.46,0,0,1,1.9,1.27,5.87,5.87,0,0,1,1.72,4.15V13.4a6.71,6.71,0,0,0,.34,1.89A5.39,5.39,0,0,0,17,16.9a.61.61,0,0,1-.1.85.64.64,0,0,1-.38.12H10ZM9.63,14.4h0A.38.38,0,0,1,10,14a.37.37,0,0,1,.36.37v1.09a.36.36,0,0,1-.36.36h0a.37.37,0,0,1-.37-.36h0ZM10,6.82h0a1,1,0,0,1,.81.47,1.82,1.82,0,0,1,0,1.91.92.92,0,0,1-1.62,0h0a1.78,1.78,0,0,1,0-1.91A1,1,0,0,1,10,6.82Zm.21.88h0c-.13-.2-.29-.2-.43,0a1.15,1.15,0,0,0,0,1.11h0c.14.19.3.19.43,0A1.1,1.1,0,0,0,10.21,7.7ZM8,13.05H8a1.14,1.14,0,0,0,1,.56c.25,0,.32-.15.21-.36h0a1.08,1.08,0,0,0-1-.55c-.22,0-.31.14-.21.35Zm-.63-.63h0a1,1,0,0,1,.8-.44,1.8,1.8,0,0,1,1.66.95v0a1,1,0,0,1,0,.91v0a1,1,0,0,1-.81.45,1.81,1.81,0,0,1-1.66-1v0a.94.94,0,0,1,0-.92v0Zm0-2.56h0a1,1,0,0,1,.81-.46,1.81,1.81,0,0,1,1.66,1,1,1,0,0,1,0,.94,1,1,0,0,1-.81.46,1.8,1.8,0,0,1-1.66-1,1,1,0,0,1,0-.94Zm.86.26h0c-.23,0-.31.16-.21.36H8a1.1,1.1,0,0,0,1,.56c.25,0,.32-.15.22-.37h0a1.1,1.1,0,0,0-1-.56Zm3.65,0h0a1.08,1.08,0,0,0-1,.55h0c-.11.23,0,.35.2.37a1.06,1.06,0,0,0,1-.55h0q.15-.33-.21-.36Zm.06-.72h0a1,1,0,0,1,.8.44v0a1,1,0,0,1,0,.94,1.83,1.83,0,0,1-1.66,1,1,1,0,0,1-.8-.44l0,0a1,1,0,0,1,0-.94A1.8,1.8,0,0,1,11.88,9.4Zm-.06,3.3h0a1.08,1.08,0,0,0-1,.55c-.11.23,0,.35.2.37a1.07,1.07,0,0,0,1-.55h0c.1-.22,0-.35-.21-.36Zm.06-.72h0a1,1,0,0,1,.8.44v0a1,1,0,0,1,0,.94h0a1.81,1.81,0,0,1-.67.7,1.66,1.66,0,0,1-1,.26,1,1,0,0,1-.81-.44v0a1,1,0,0,1,0-.94h0a1.78,1.78,0,0,1,1.65-1ZM4.54,16.66H15.46a7.07,7.07,0,0,1-.4-1,7.64,7.64,0,0,1-.41-2.27V10.54a4.64,4.64,0,0,0-1.36-3.28,4.41,4.41,0,0,0-1.51-1A4.66,4.66,0,0,0,10,5.9h0a4.74,4.74,0,0,0-1.78.35,4.33,4.33,0,0,0-1.49,1,4.61,4.61,0,0,0-1,1.51,4.84,4.84,0,0,0-.34,1.77V13.4a7.64,7.64,0,0,1-.41,2.27,8.53,8.53,0,0,1-.4,1ZM3,16.86H3a.7.7,0,0,1,.46-.2ZM9,3.33H9l1,1,1-1Z"/>
        </g>
    </g>
</svg>