<svg xmlns="http://www.w3.org/2000/svg" viewBox="0 0 20 20">
    <defs>
        <style>.cls-1{fill:none;}</style>
    </defs>
    <g id="Layer_2" data-name="Layer 2">
        <g id="Layer_1-2" data-name="Layer 1">
            <rect class="cls-1" width="20" height="20"/>
            <path id="Path_3870" data-name="Path 3870" d="M7.6,16.62h0a.11.11,0,0,0,.08,0,.12.12,0,0,0,.1,0L9,15.41A1.54,1.54,0,0,0,9.28,15h0l0,0c.06-.13.13-.26.2-.38l0-.05a2.79,2.79,0,0,1,.35-.42h0l.67-.64a9.24,9.24,0,0,0,2.24-2.77,5.92,5.92,0,0,1,.37-.81l0,0a3.85,3.85,0,0,1,.52-.7L10.86,6.29a4.21,4.21,0,0,1-.76.55c-.25.14-.53.26-.79.38A9.06,9.06,0,0,0,6.54,9.45l-.64.67a2.78,2.78,0,0,1-.88.59,1.6,1.6,0,0,0-.43.28L3.37,12.2h0a.19.19,0,0,0,0,.08.18.18,0,0,0,0,.1c1.41,1.4,2.82,2.82,4.23,4.23ZM9,8.05h0L12,11a.36.36,0,0,1,0,.5l0,0h0L9.23,14.2a.35.35,0,0,1-.5,0h0l-2.9-2.91a.35.35,0,0,1,0-.49l0,0h0l2.7-2.72a.36.36,0,0,1,.51,0Zm2.14,3.18h0l-2.4-2.4L6.57,11,9,13.44l2.21-2.21Zm3.47-2.18h0l0,0,.36-.37v0h0l-3.7-3.71h0L11,5.32h0l3.7,3.71Zm.08-1.76h0L16.51,4.2l-.71-.73-3.1,1.8,2,2Zm-8,10.19h0L2.51,13.24a1.35,1.35,0,0,1,0-1.86l0,0,1.21-1.21a2.42,2.42,0,0,1,.76-.51A1.62,1.62,0,0,0,5,9.26c.23-.22.43-.43.62-.64A10,10,0,0,1,8.83,6.1a6,6,0,0,0,.68-.32h0l.25-.15a1.23,1.23,0,0,1,.33-1.14l.39-.4a1.24,1.24,0,0,1,1.73,0l0,0L15.58,2.2a.61.61,0,0,1,.74.1l1.35,1.35a.58.58,0,0,1,.12.75L15.87,7.75h0l0,0a1.23,1.23,0,0,1,0,1.72l-.37.37,0,0a1.18,1.18,0,0,1-1.13.32,1.64,1.64,0,0,0-.14.22l0,0a6,6,0,0,0-.32.68,9.83,9.83,0,0,1-2.52,3.17l-.64.63a1.59,1.59,0,0,0-.2.24v0a.87.87,0,0,0-.14.27l0,0a2.26,2.26,0,0,1-.51.76L8.64,17.49a1.33,1.33,0,0,1-.94.39,1.35,1.35,0,0,1-1-.4Z"/>
        </g>
    </g>
</svg>