<svg xmlns="http://www.w3.org/2000/svg" viewBox="0 0 20 20">
    <defs>
        <style>.cls-1{fill:none;}</style>
    </defs>
    <g id="Layer_2" data-name="Layer 2">
        <g id="Layer_1-2" data-name="Layer 1">
            <rect class="cls-1" width="20" height="20"/>
            <path id="Path_3871" data-name="Path 3871" d="M9.67,5.49a4,4,0,0,1,3.92-3.37A.4.4,0,0,1,14,2.5a.4.4,0,0,1-.39.38A3.19,3.19,0,0,0,10.45,5.5a2.19,2.19,0,0,1,1.68,1.68c2.21.59,4.27,1.76,4.27,4.35a2.83,2.83,0,0,1-.81,2,3.13,3.13,0,0,1-1,.64l-.7,3.22a.63.63,0,0,1-.62.5H6.71a.63.63,0,0,1-.62-.52l-.7-3.2a3,3,0,0,1-1-.64,2.78,2.78,0,0,1-.82-2c0-2.6,2.06-3.77,4.27-4.36a2.2,2.2,0,0,1,1.8-1.69Zm2.36,3h0a2.19,2.19,0,0,1-4,0c-1.56.45-3.11,1.21-3.11,3.07a1.56,1.56,0,0,0,1.55,1.55,1.51,1.51,0,0,0,1.26-.68.85.85,0,0,1,.17-.16.64.64,0,0,1,.88.16h0a1.55,1.55,0,0,0,.55.5,1.53,1.53,0,0,0,1.44,0,1.55,1.55,0,0,0,.55-.5,1.29,1.29,0,0,1,.17-.16.64.64,0,0,1,.88.16,1.55,1.55,0,0,0,.55.5,1.51,1.51,0,0,0,.72.18,1.55,1.55,0,0,0,1.54-1.55c0-1.87-1.54-2.62-3.11-3.07ZM10,6.73h0a.92.92,0,1,0,.91.92h0A.91.91,0,0,0,10,6.73Zm3.27,7.59h0a2.72,2.72,0,0,1-1-.31,2.51,2.51,0,0,1-.48-.32,2.82,2.82,0,0,1-1.8.65A2.7,2.7,0,0,1,8.7,14a2,2,0,0,1-.5-.32,2.11,2.11,0,0,1-.48.32,2.54,2.54,0,0,1-1,.31l.5,2.29h5.56l.49-2.29ZM10.38,16h0a.37.37,0,0,1-.37.38h0A.38.38,0,0,1,9.62,16V15a.38.38,0,0,1,.76,0h0Zm-1.79-.09h0a.38.38,0,0,1-.28.45h0A.35.35,0,0,1,7.86,16h0l-.19-.9A.37.37,0,0,1,8,14.68.39.39,0,0,1,8.4,15l.19.89Zm3.57.17h0a.38.38,0,0,1-.75-.17h0L11.6,15a.4.4,0,0,1,.46-.29.39.39,0,0,1,.29.45l-.19.9Z"/>
        </g>
    </g>
</svg>