<svg xmlns="http://www.w3.org/2000/svg" viewBox="0 0 20 20">
    <defs>
        <style>.cls-1{fill:none;}</style>
    </defs>
    <g id="Layer_2" data-name="Layer 2">
        <g id="Layer_1-2" data-name="Layer 1">
            <rect class="cls-1" width="20" height="20"/>
            <g id="Group_3809" data-name="Group 3809">
                <path id="Path_3879" data-name="Path 3879" d="M16.13,15.26a3.9,3.9,0,0,1-.22-.76c0-.14-.06-.24-.08-.31a3.78,3.78,0,0,1-.05-2A15.71,15.71,0,0,0,16,9.69a16,16,0,0,0-.18-2,3.83,3.83,0,0,1,0-2,6.3,6.3,0,0,0,.31-1.13,6,6,0,0,0,0-1.79.49.49,0,0,0-.22-.37.53.53,0,0,0-.41-.08l-1,.21-1-.29a.51.51,0,0,0-.3,0l-1,.28-1-.27a.45.45,0,0,0-.28,0l-.95.26-1-.32a.5.5,0,0,0-.34,0l-1,.33-1-.24a.53.53,0,0,0-.25,0l-1,.25L4.46,2.38a.53.53,0,0,0-.61.38,3.38,3.38,0,0,0,0,2,4.44,4.44,0,0,1,.21.71,2.37,2.37,0,0,0,.09.36,2.94,2.94,0,0,1-.07,1.83A9.88,9.88,0,0,0,3.8,9.81a13.32,13.32,0,0,0,.3,2.67,4.2,4.2,0,0,1,.14,1.93,4.56,4.56,0,0,0-.39,1,3,3,0,0,0-.12,1.26,1.75,1.75,0,0,0,.18.63.5.5,0,0,0,.57.28l1-.22,1,.3a.48.48,0,0,0,.29,0l1-.29,1,.27a.45.45,0,0,0,.28,0l1-.27,1,.34.17,0,.17,0,1-.34,1,.24a.53.53,0,0,0,.25,0l1-.25,1.11.23a.52.52,0,0,0,.61-.37A3.46,3.46,0,0,0,16.13,15.26ZM5.48,3.67a.45.45,0,0,0,.23,0l1-.25,1,.25a.51.51,0,0,0,.3,0l.95-.32,1,.32a.47.47,0,0,0,.31,0l1-.28,1,.28a.48.48,0,0,0,.29,0l1-.28,1,.28a.57.57,0,0,0,.26,0l.54-.12a5.49,5.49,0,0,1-.07.91v0H4.87c0-.06,0-.08,0-.14a1.71,1.71,0,0,1-.07-.81Zm9.27,4.2a14.13,14.13,0,0,1,.16,1.84A12.83,12.83,0,0,1,14.74,12a4.71,4.71,0,0,0,.11,2.55s0,.08,0,.14.08.23.1.33H5.1l.05-.1a4.4,4.4,0,0,0,0-2.64,12.7,12.7,0,0,1-.28-2.46A9.17,9.17,0,0,1,5.13,7.9a3.87,3.87,0,0,0,0-2.45,1.29,1.29,0,0,1,0-.19l-.05-.15h9.88l-.11.3a4.78,4.78,0,0,0-.08,2.46Zm-.22,8.48a.88.88,0,0,0-.23,0l-1,.25-1-.25a.51.51,0,0,0-.3,0l-.94.32-.95-.32a.45.45,0,0,0-.16,0H9.82l-1,.28-1-.28a.71.71,0,0,0-.29,0l-1,.29-1-.29a.57.57,0,0,0-.26,0l-.63.13a2.21,2.21,0,0,1,.1-.76l0-.06H15.17a1.77,1.77,0,0,1,.07.82Z"/>
                <path id="Path_3880" data-name="Path 3880" d="M12.32,8a2.64,2.64,0,0,0-3,.94H9.23c-1.47,0-2.45.49-2.73,1.39a2.26,2.26,0,0,0,.39,2,1.58,1.58,0,0,0,1.2.76c.55,0,.86-.47,1.16-.93l.19-.3a1.89,1.89,0,0,1,1.12-.95,3.16,3.16,0,0,1,1,0,2,2,0,0,1,.35.09,2.52,2.52,0,0,0,.34.15,2.81,2.81,0,0,0,.9.21.59.59,0,0,0,.4-.12c.33-.25.29-.85.26-1.09A2.69,2.69,0,0,0,12.32,8Zm-1.86,2.25a2.48,2.48,0,0,0-1.54,1.22c-.06.11-.14.21-.2.3-.26.41-.43.65-.63.65a1,1,0,0,1-.69-.5,1.61,1.61,0,0,1-.3-1.39c.26-.82,1.39-1,2.18-1h.21a3.36,3.36,0,0,1,.88.23,1.71,1.71,0,0,1,.27.14,3.62,3.62,0,0,1,.43.24l.06,0a5,5,0,0,0-.67,0Zm2.67.47a2.7,2.7,0,0,1-.69-.18.91.91,0,0,1-.22-.09s-.07-.06-.08-.09a2.84,2.84,0,0,0-.6-.6,1.06,1.06,0,0,0-.12-.1,4.25,4.25,0,0,0-1.14-.54c-.07,0-.11-.07-.19-.08a1.71,1.71,0,0,1,2.41-.19,1.73,1.73,0,0,1,.57,1,1.62,1.62,0,0,1,.06.9Z"/>
            </g>
        </g>
    </g>
</svg>