<svg xmlns="http://www.w3.org/2000/svg" viewBox="0 0 20 20">
    <defs>
        <style>.cls-1{fill:none;}</style>
    </defs>
    <g id="Layer_2" data-name="Layer 2">
        <g id="Layer_1-2" data-name="Layer 1">
            <rect class="cls-1" width="20" height="20"/>
            <path id="Path_3872" data-name="Path 3872" d="M5,9h8.26a.66.66,0,0,1,.64.62h.53a2.12,2.12,0,0,1,2.11,2.11h0a2.12,2.12,0,0,1-2.11,2.11h-.82a4.45,4.45,0,0,1-1,1.45h0a4.28,4.28,0,0,1-3,1.27h-1a4.31,4.31,0,0,1-4.3-4.3V9.68A.66.66,0,0,1,5,9H5Zm3.66-.89h0a.39.39,0,0,1-.7.34l0,0a3,3,0,0,1-.23-.78A3.74,3.74,0,0,1,7.74,6h0A4.25,4.25,0,0,1,8,5.24.39.39,0,0,1,8.48,5h0a.39.39,0,0,1,.21.51,3.78,3.78,0,0,0-.19.63,3,3,0,0,0-.07.66,3.34,3.34,0,0,0,.26,1.29Zm-1.32,0h0a3.38,3.38,0,0,1-.26-1.29,3.68,3.68,0,0,1,.06-.66h0a2.7,2.7,0,0,1,.19-.63,4.25,4.25,0,0,0,.23-.77A3.81,3.81,0,0,0,7.69,4a3.72,3.72,0,0,0-.09-.81,3,3,0,0,0-.23-.78.39.39,0,0,0-.49-.22h0a.39.39,0,0,0-.22.5h0a3.28,3.28,0,0,1,.19.63A2.46,2.46,0,0,1,6.9,4a2.46,2.46,0,0,1-.06.66,3.28,3.28,0,0,1-.19.63A4.29,4.29,0,0,0,6.41,6h0a4.46,4.46,0,0,0-.09.81,4.48,4.48,0,0,0,.09.82,3.52,3.52,0,0,0,.24.78.38.38,0,0,0,.51.21.39.39,0,0,0,.22-.51Zm6.57,2.3h0v1.86a5.14,5.14,0,0,1-.07.78h.6a1.31,1.31,0,0,0,1.32-1.29v0h0a1.31,1.31,0,0,0-1.32-1.32ZM3.82,17.88h0a.39.39,0,0,1-.39-.39.38.38,0,0,1,.39-.39H14.49a.39.39,0,0,1,.4.39.4.4,0,0,1-.39.39H3.82Zm8.81-7.56h-7v2a3,3,0,0,0,3,3h1a2.94,2.94,0,0,0,2.1-.87h0a3,3,0,0,0,.88-2.11v-2Z"/>
        </g>
    </g>
</svg>