<svg xmlns="http://www.w3.org/2000/svg" viewBox="0 0 20 20">
    <defs>
        <style>.cls-1{fill:none;}.cls-2{fill-rule:evenodd;}</style>
    </defs>
    <g id="Layer_2" data-name="Layer 2">
        <g id="Layer_1-2" data-name="Layer 1">
            <rect class="cls-1" width="20" height="20"/>
            <path id="Path_3873" data-name="Path 3873" class="cls-2" d="M8.5,4.88a.59.59,0,0,1-.2-.45V2.73a.6.6,0,0,1,.6-.61h2.2a.61.61,0,0,1,.61.61v1.7a.66.66,0,0,1-.21.45l.22.12a3.43,3.43,0,0,1,1.6,2.85,3.82,3.82,0,0,1-.08.75,3.34,3.34,0,0,1-.26.71c-.23.49-.31.7-.07,1.16a3,3,0,0,1,.41,1.58v4.33a1.46,1.46,0,0,1-.42,1.07,1.56,1.56,0,0,1-.71.39h0a1.67,1.67,0,0,1-.77,0h0a1.54,1.54,0,0,1-.5-.24.4.4,0,0,1-.15.1,1.59,1.59,0,0,1-1.5,0,.65.65,0,0,1-.15-.1,1.49,1.49,0,0,1-.49.24h0a1.67,1.67,0,0,1-.77,0h0a1.56,1.56,0,0,1-.71-.39,1.52,1.52,0,0,1-.42-1.07V12.05a3,3,0,0,1,.41-1.58C7.34,10,7.26,9.8,7,9.31a2.85,2.85,0,0,1-.25-.71,3.2,3.2,0,0,1-.09-.75,3.42,3.42,0,0,1,.25-1.27A3.32,3.32,0,0,1,8.29,5l.21-.12ZM8,11.45h4a1.65,1.65,0,0,0-.18-.41,2.06,2.06,0,0,1,.06-2.26,1.83,1.83,0,0,0,.15-.45,1.59,1.59,0,0,0,.07-.48A2.06,2.06,0,0,0,12,7a2.22,2.22,0,0,0-.45-.69A2.64,2.64,0,0,0,11.09,6a2.76,2.76,0,0,0-.47-.2.6.6,0,0,1-.43-.58V5H9.81v.22a.6.6,0,0,1-.42.58,2.46,2.46,0,0,0-.47.2,2.51,2.51,0,0,0-.41.32A2.45,2.45,0,0,0,8.05,7a2,2,0,0,0-.15.81,2.59,2.59,0,0,0,0,.48,2.45,2.45,0,0,0,.17.45A2.08,2.08,0,0,1,8.17,11a3,3,0,0,0-.19.41Zm4.14.73H7.9c0,.16,0,.32,0,.49v2.18h4.22V12.18Zm0,3.39H7.9v.81a.27.27,0,0,0,.07.21.24.24,0,0,0,.12.07h0a.61.61,0,0,0,.19,0h0a.24.24,0,0,0,.15-.09A.61.61,0,0,1,9,16.22h.2a.64.64,0,0,1,.54.33.14.14,0,0,0,.09.08.25.25,0,0,0,.17,0,.3.3,0,0,0,.18,0,.14.14,0,0,0,.09-.08.62.62,0,0,1,.53-.33H11a.63.63,0,0,1,.55.35.24.24,0,0,0,.15.09h0a.61.61,0,0,0,.19,0h0l.13-.07a.27.27,0,0,0,.07-.21v-.81ZM10,3.33H9.52v.48h1V3.33Z"/>
        </g>
    </g>
</svg>