<svg xmlns="http://www.w3.org/2000/svg" viewBox="0 0 20 20">
    <defs>
        <style>.cls-1{fill:none;}</style>
    </defs>
    <g id="Layer_2" data-name="Layer 2">
        <g id="Layer_1-2" data-name="Layer 1">
            <rect class="cls-1" width="20" height="20"/>
            <path id="Path_3874" data-name="Path 3874" d="M9.3,7.3c.51-.48,1-.56,1-1.46V2.67a.55.55,0,0,1,.55-.55h2.32a.55.55,0,0,1,.55.55h0V5.84c0,1.5,1.51,1,1.51,2.89v8.6a.55.55,0,0,1-.55.55H5.36a.56.56,0,0,1-.56-.54h0V10.06a1.85,1.85,0,0,1,1-1.74l0,0a1.15,1.15,0,0,0,.54-1.12V4a.55.55,0,0,1,.55-.55H8.74A.56.56,0,0,1,9.3,4h0v3.3Zm1.5,9.48h3.29V15.62H10.8Zm0-1.83h3.29V9.55H10.77a4.41,4.41,0,0,1,0,.52V15Zm-.3-6.07h3.59V8.73c0-1-1.4-1.22-1.5-2.56H11.36c-.11,1.45-1.13,1.29-1.44,2.18a2.25,2.25,0,0,1,.58.53ZM5.91,15H9.69V10.87H5.91Zm3.78.67H5.91v1.15H9.69ZM6.38,9.22h0a.9.9,0,0,0-.47.84v.15H9.69v-.15a.87.87,0,0,0-.47-.84h0a2,2,0,0,1-1-1.71H7.4a2,2,0,0,1-1,1.69l0,0Zm1.8-2.38h0V4.56H7.42V6.84Zm4.39-1.33h0V3.23H11.38V5.51Z"/>
        </g>
    </g>
</svg>