<svg xmlns="http://www.w3.org/2000/svg" viewBox="0 0 20 20">
    <defs>
        <style>.cls-1{fill:none;}</style>
    </defs>
    <g id="Layer_2" data-name="Layer 2">
        <g id="Layer_1-2" data-name="Layer 1">
            <rect class="cls-1" width="20" height="20"/>
            <path id="Path_5486" data-name="Path 5486" d="M10.69,10.07a2.73,2.73,0,0,0,1.39-.83.68.68,0,0,0,.13-.33.29.29,0,0,0-.08-.23,1,1,0,0,0-.56-.28,3.12,3.12,0,0,1-2.74,1c-.15.2-.31.38-.47.56.35.4,1.9.23,2.33.1Zm3.56,2.49h0a.63.63,0,0,0-.61-.17h0a.64.64,0,0,0-.25.15.92.92,0,0,0-.19.25h0a.65.65,0,0,0,.11.69.41.41,0,0,1,0,.51.65.65,0,0,0-.13.7.85.85,0,0,0,.17.25,1,1,0,0,0,.26.15.6.6,0,0,0,.63-.16h0l1.15-1.16-1.12-1.2h0Zm-.85-.92h0a1.33,1.33,0,0,1,1.41.36l0,0,1.39,1.48h0a.4.4,0,0,1,0,.55L14.8,15.49h0a1.35,1.35,0,0,1-1.46.35,1.39,1.39,0,0,1-.53-.33,1.48,1.48,0,0,1-.46-1.32,5.79,5.79,0,0,0-1.58.38,5.08,5.08,0,0,0-1.14.63,7.43,7.43,0,0,1-2.7,3.07.66.66,0,0,1-.72-1.1,6.24,6.24,0,0,0,.72-.55.33.33,0,0,1,0-.16,3.74,3.74,0,0,0-.29-1.09,1.92,1.92,0,0,0-.18-.31,1.18,1.18,0,0,1-.3.33,1.34,1.34,0,0,1-.5.23,1.28,1.28,0,0,1-.55,0H5a1.2,1.2,0,0,1-.92-.89v0l-.42-1.59A.39.39,0,0,1,4,12.65H4l1.6-.49h0a1.18,1.18,0,0,1,1.23.34,1.5,1.5,0,0,1,.28.47v0a1.25,1.25,0,0,1,0,.51,1.15,1.15,0,0,1-.37.78,2.8,2.8,0,0,1,.52.75,4.85,4.85,0,0,1,.3.91,6.07,6.07,0,0,0,1.23-2.36,7.8,7.8,0,0,0,.25-2.5l-.16,0a1.78,1.78,0,0,1-1.17-.6c-.55.33-1.14.32-1.58-.55a3,3,0,0,0-1-1.15,5.34,5.34,0,0,1-1-.94,1.53,1.53,0,0,1-.36-.89A1.37,1.37,0,0,1,4,6.25a1.74,1.74,0,0,1,.44-.5,2.32,2.32,0,0,1,1-.45,7.93,7.93,0,0,1,.3-1.94.4.4,0,0,1,.76,0h0A2.52,2.52,0,0,0,7.87,4.91l.07,0a2.48,2.48,0,0,0,1.74,0,2.7,2.7,0,0,0,1.38-1.18.59.59,0,0,1,.5-.33c.36,0,.65.45.76,1.14,0,.11,0,.24,0,.38a1.7,1.7,0,0,1,.39,0h0a.93.93,0,0,1,.71.38,1.1,1.1,0,0,1-.07,1.08,2,2,0,0,0-.18,1.18v0c0,.1,0,.22.06.34.08.47.14.82-.22,1.06L13,9a1.41,1.41,0,0,1-.28.68,3.36,3.36,0,0,1-1.8,1.1,4.44,4.44,0,0,1-.54.15,9.26,9.26,0,0,1-.28,3l0,.09a3,3,0,0,1,.41-.18,6.26,6.26,0,0,1,1.9-.44,1.36,1.36,0,0,1,.09-.93v0a1.55,1.55,0,0,1,.38-.5,1.32,1.32,0,0,1,.54-.31ZM6.23,13h0a.43.43,0,0,0-.44-.11h0l-1.23.38.32,1.24h0a.43.43,0,0,0,.32.33h0a.5.5,0,0,0,.21,0,.41.41,0,0,0,.21-.1.46.46,0,0,0,.17-.48h0A.41.41,0,0,1,6,13.83a.48.48,0,0,0,.32-.39h0a.5.5,0,0,0,0-.21h0a.54.54,0,0,0-.1-.2Zm4-4.57h0a2.57,2.57,0,0,0,1.32-2.13,5,5,0,0,0,0-1.64,1.62,1.62,0,0,1,0-.22A3.61,3.61,0,0,1,10,5.67a3.66,3.66,0,0,1-.65.17,2.79,2.79,0,0,1,.91,2.61Zm-4-2.34h0a3.13,3.13,0,0,0,.58,1.55,2.28,2.28,0,0,0,1.27.85,4.07,4.07,0,0,0,1.3.11,2.12,2.12,0,0,0-.66-2.24,10.85,10.85,0,0,0-1.11-.7A3.69,3.69,0,0,1,6.27,4.62a6.28,6.28,0,0,0,0,1.5Zm-.79,0h0a1.67,1.67,0,0,0-.51.27.85.85,0,0,0-.24.26.66.66,0,0,0-.06.27.62.62,0,0,0,.2.43,4.08,4.08,0,0,0,.84.82A3.54,3.54,0,0,1,6.86,9.57a.36.36,0,0,0,.45.24.38.38,0,0,0,.15-.09,3.77,3.77,0,0,0,.46-.43h0a3.19,3.19,0,0,1-1.7-1.14A4.09,4.09,0,0,1,5.46,6.2V6.1ZM12,7.69h0a1.59,1.59,0,0,1,.53.28,1,1,0,0,0,0-.29v0A2.82,2.82,0,0,1,12.73,6a.76.76,0,0,0,.11-.29l-.13,0H12.4a4.51,4.51,0,0,1-.07.73A5.46,5.46,0,0,1,12,7.69ZM9,3.54H9a.37.37,0,0,1,.5-.21h0a.38.38,0,0,1,.22.48v0A1,1,0,0,1,9,4.48a1.57,1.57,0,0,1-.86,0,2.55,2.55,0,0,1-.77-.35h0a1.32,1.32,0,0,1-.62-1c0-.74.6-1.19,1.36-1.38a2.9,2.9,0,0,1,.83-.1,3.15,3.15,0,0,1,.81.1c.77.19,1.36.64,1.36,1.38a.39.39,0,0,1-.39.39h0a.39.39,0,0,1-.39-.38h0c0-.3-.34-.51-.76-.62a3.38,3.38,0,0,0-.63-.07,3.38,3.38,0,0,0-.63.07c-.43.11-.75.31-.76.62,0,.1.12.22.29.33a1.56,1.56,0,0,0,.52.25.93.93,0,0,0,.47,0A.35.35,0,0,0,9,3.53Z"/>
        </g>
    </g>
</svg>