<svg xmlns="http://www.w3.org/2000/svg" viewBox="0 0 20 20">
    <defs>
        <style>.cls-1{fill:none;}</style>
    </defs>
    <g id="Layer_2" data-name="Layer 2">
        <g id="Layer_1-2" data-name="Layer 1">
            <rect class="cls-1" width="20" height="20"/>
            <path id="Path_3881" data-name="Path 3881" d="M14.25,4.12v-1H13V2.37H11.2V3.75H6.64a1.16,1.16,0,0,0-.7.22A1.29,1.29,0,0,0,5.37,5V16.35a1.27,1.27,0,0,0,1.27,1.28h6.72a1.27,1.27,0,0,0,1.27-1.27h0V5A1.25,1.25,0,0,0,14.25,4.12ZM11.79,3h.62v4.5h-.62ZM11.2,5.51l-.81-.64h.81Zm0,.71V7.46H7.32L10,5.3ZM6.58,5a.28.28,0,0,1,.21-.1h2.9L6.5,7.4V5.16A.3.3,0,0,1,6.58,5Zm6.73,11.68H6.78a.31.31,0,0,1-.29-.3V8.59H13.6v7.75a.29.29,0,0,1-.29.3Zm.29-9V7.46H13V3.74h.61V7.59Z"/>
        </g>
    </g>
</svg>