<svg xmlns="http://www.w3.org/2000/svg" viewBox="0 0 20 20">
    <defs>
        <style>.cls-1{fill:none;}</style>
    </defs>
    <g id="Layer_2" data-name="Layer 2">
        <g id="Layer_1-2" data-name="Layer 1">
            <rect class="cls-1" width="20" height="20"/>
            <path id="Path_3884" data-name="Path 3884" d="M7.6,7.41h.81V6a.36.36,0,0,1,.36-.35h.49V4.69H6.85L5,6.51a.6.6,0,0,1-.84,0,.59.59,0,0,1,0-.84h0l2-2a.55.55,0,0,1,.42-.17H9.26v-1a.35.35,0,0,1,.35-.36h3.77a.36.36,0,0,1,.36.36h0V5.63h.49A.36.36,0,0,1,14.6,6h0V7.4h.79A.6.6,0,0,1,16,8v9.29a.6.6,0,0,1-.6.59H7.6A.59.59,0,0,1,7,17.29V8a.6.6,0,0,1,.59-.6Zm1.52,0h4.76V6.35H9.12ZM13,2.83H10v2.8H13V2.83ZM14.8,8.59H8.2V16.7h6.6V8.59Z"/>
        </g>
    </g>
</svg>