<svg xmlns="http://www.w3.org/2000/svg" viewBox="0 0 20 20">
    <defs>
        <style>.cls-1{fill:none;}</style>
    </defs>
    <g id="Layer_2" data-name="Layer 2">
        <g id="Layer_1-2" data-name="Layer 1">
            <rect class="cls-1" width="20" height="20"/>
            <path id="Path_3839" data-name="Path 3839" d="M5.32,15.65l-.26.26,0,0,0,.05a1.16,1.16,0,0,1,.3.77v0a1.11,1.11,0,0,1-.33.78l0,0a1.14,1.14,0,0,1-.77.3,1.13,1.13,0,0,1-1.12-1,1.06,1.06,0,0,1-.7-.32,1.14,1.14,0,0,1-.33-.8,1.1,1.1,0,0,1,.3-.76s0-.05.06-.07a1.15,1.15,0,0,1,1.54,0l.05,0,0,0,.23-.23a2,2,0,0,1-.2-.41v0a2.51,2.51,0,0,1,.68-2.76A7.55,7.55,0,0,0,6.19,8.21a10.89,10.89,0,0,1,2.21-5l.12-.13,0,0h0a3.46,3.46,0,0,1,2.52-1h.07a5.56,5.56,0,0,1,2.58.69h0c.19.1.38.2.57.32l0,0,.26.17h0l.2.15,0,0,.13.11,0,0,.08.07.05,0L15.4,4l.07,0,.23.24h0v0a7.25,7.25,0,0,1,2,3.68c0,.11,0,.21,0,.31v.61a3.58,3.58,0,0,1-1,2.56h0l0,0a10.86,10.86,0,0,1-5.06,2.29,7.66,7.66,0,0,0-3.33,1.35,2.54,2.54,0,0,1-2.81.67,2,2,0,0,1-.3-.14ZM14.46,9h0A1.66,1.66,0,0,1,13,9.42a3,3,0,0,1-1.55-.85h0l0,0A3.14,3.14,0,0,1,10.53,7a1.72,1.72,0,0,1,.4-1.52,1.67,1.67,0,0,1,1.51-.39A3,3,0,0,1,14,6h0l0,0a3,3,0,0,1,.83,1.52A1.67,1.67,0,0,1,14.46,9Zm-.57-.57h0a.89.89,0,0,0,.18-.8,2.27,2.27,0,0,0-.62-1.11l0,0h0a2.16,2.16,0,0,0-1.13-.63.89.89,0,0,0-.8.18.9.9,0,0,0-.18.79A2.35,2.35,0,0,0,11.94,8l0,0h0a2.22,2.22,0,0,0,1.12.64.89.89,0,0,0,.8-.18ZM6.1,14.55h0a1.26,1.26,0,0,0,1.38-.37,8.59,8.59,0,0,1,3.94-1.7l1.25-.34A7.87,7.87,0,0,1,7.81,7.28c-.12.42-.22.84-.34,1.26a8.49,8.49,0,0,1-1.69,3.94,1.25,1.25,0,0,0-.39,1.34l0,0a1.06,1.06,0,0,0,.26.43,1.3,1.3,0,0,0,.43.27Zm5.66-11h0l-.49-.06h-.14a2.2,2.2,0,0,0-1.65.6A2.53,2.53,0,0,0,9,6.34a5.88,5.88,0,0,0,1.68,3,5.84,5.84,0,0,0,3,1.68,2.55,2.55,0,0,0,2.25-.5l0,0a2.23,2.23,0,0,0,.59-1.57,3.35,3.35,0,0,0-.06-.71A1.74,1.74,0,0,0,16.4,8V8a1.6,1.6,0,0,0-.05-.21v0l0,0v-.1l0-.06v0a6.33,6.33,0,0,0-1.46-2.27h0l0,0a7.37,7.37,0,0,0-.8-.68h0l-.35-.24h0l-.23-.13L13.15,4a5.23,5.23,0,0,0-1.39-.49ZM4,16.75H4a.33.33,0,0,0,.1.23.34.34,0,0,0,.23.1A.35.35,0,0,0,4.53,17l0,0a.28.28,0,0,0,.08-.2h0a.33.33,0,1,0-.66,0Zm-.7-.7h0A.35.35,0,0,0,3.5,16h0v0h0a.22.22,0,0,0,.08-.2h0a.33.33,0,0,0-.33-.33h0a.41.41,0,0,0-.23.09H3a.36.36,0,0,0-.09.23H3A.39.39,0,0,0,3,16a.37.37,0,0,0,.24.1Z"/>
        </g>
    </g>
</svg>