<svg xmlns="http://www.w3.org/2000/svg" viewBox="0 0 20 20">
    <defs>
        <style>.cls-1{fill:none;}</style>
    </defs>
    <g id="Layer_2" data-name="Layer 2">
        <g id="Layer_1-2" data-name="Layer 1">
            <rect class="cls-1" width="20" height="20"/>
            <path id="Path_3876" data-name="Path 3876" d="M15,10.56a.61.61,0,0,0-.61.61V16.5H5.61V11.17a.61.61,0,1,0-1.21,0v5.94a.61.61,0,0,0,.61.61H15a.6.6,0,0,0,.6-.61h0V11.17A.6.6,0,0,0,15,10.56Zm2.7-.08h0l-3.1-3.1V2.65a.38.38,0,0,0-.37-.37H12a.37.37,0,0,0-.36.37V4.46L10.43,3.2a.62.62,0,0,0-.86,0L2.29,10.48a.6.6,0,0,0,.85.85L10,4.49l6.86,6.84a.58.58,0,0,0,.83,0l0,0a.61.61,0,0,0,0-.85ZM13.87,6.65h0L12.41,5.18V3h1.46Zm-1.58,8.2h0a.38.38,0,0,0,.37-.37V10.43a.38.38,0,0,0-.37-.37H7.71a.37.37,0,0,0-.36.37h0v4.05a.37.37,0,0,0,.36.37Zm-4.22-4h3.86v3.32H8.07Z"/>
        </g>
    </g>
</svg>