<svg xmlns="http://www.w3.org/2000/svg" viewBox="0 0 20 20">
    <defs>
        <style>.cls-1{fill:none;}</style>
    </defs>
    <g id="Layer_2" data-name="Layer 2">
        <g id="Layer_1-2" data-name="Layer 1">
            <rect class="cls-1" width="20" height="20"/>
            <path id="Path_3877" data-name="Path 3877" d="M10.05,3.67A6.34,6.34,0,0,1,15.9,7.59a2.42,2.42,0,0,1,1.29.7,2.48,2.48,0,0,1-.06,3.5,2.44,2.44,0,0,1-1.23.64,6.35,6.35,0,0,1-11.71,0,2.51,2.51,0,0,1-1.34-.69A2.47,2.47,0,0,1,4.19,7.57,6.34,6.34,0,0,1,6.37,4.84a6.22,6.22,0,0,1,3.68-1.17Zm1.46,8.65h0a.36.36,0,0,1,.27.67,4.58,4.58,0,0,1-3.56,0A.36.36,0,0,1,8,12.52a.37.37,0,0,1,.48-.2,3.64,3.64,0,0,0,1.49.3,3.91,3.91,0,0,0,1.51-.3ZM8,9.4H8a.61.61,0,0,1,0,1.21A.61.61,0,1,1,8,9.4Zm4,0h0a.61.61,0,1,1,0,1.21A.61.61,0,1,1,12,9.4Zm.47-3.91h0a1,1,0,0,1,0,.25A2.42,2.42,0,0,1,12,6.82a.35.35,0,0,1-.48.08h0a.36.36,0,0,1-.08-.5h0a1.82,1.82,0,0,0,.36-1.21A4.44,4.44,0,0,0,10.89,5a3.08,3.08,0,0,1-.83,1.9.35.35,0,0,1-.51,0,.37.37,0,0,1,0-.51,2.31,2.31,0,0,0,.63-1.47h-.11a4.6,4.6,0,0,0-.74,0A3.72,3.72,0,0,1,8.12,6.87a.36.36,0,0,1-.51,0,.35.35,0,0,1,0-.51h0A3.09,3.09,0,0,0,8.5,5.11a4.81,4.81,0,0,0-1.43.72A5,5,0,0,0,5.2,8.33h0a.62.62,0,0,1-.53.41H4.6a1.21,1.21,0,0,0-.9.36,1.26,1.26,0,0,0-.37.9,1.24,1.24,0,0,0,.37.89h0a1.25,1.25,0,0,0,.88.36.63.63,0,0,1,.62.42A5.11,5.11,0,0,0,13,14.19a5.23,5.23,0,0,0,1.89-2.51.59.59,0,0,1,.55-.42,1.27,1.27,0,0,0,.86-.37,1.26,1.26,0,0,0,.37-.89,1.22,1.22,0,0,0-.37-.88,1.28,1.28,0,0,0-.82-.38.59.59,0,0,1-.59-.41A5.17,5.17,0,0,0,13,5.82q-.27-.18-.54-.33Z"/>
        </g>
    </g>
</svg>