<svg xmlns="http://www.w3.org/2000/svg" viewBox="0 0 20 20">
    <defs>
        <style>.cls-1{fill:none;}</style>
    </defs>
    <g id="Layer_2" data-name="Layer 2">
        <g id="Layer_1-2" data-name="Layer 1">
            <rect class="cls-1" width="20" height="20"/>
            <path id="Path_3878" data-name="Path 3878" d="M8.69,7.47a1.11,1.11,0,0,1,.79.33h0a1.1,1.1,0,0,1,0,1.55h0a1.11,1.11,0,0,1-1.57,0,1.06,1.06,0,0,1-.32-.77,1.12,1.12,0,0,1,1.1-1.12ZM8.76,8h0a.58.58,0,0,1,0,.18.46.46,0,0,1-.46.46h0a.29.29,0,0,1-.18,0,.54.54,0,0,0,.54.49A.59.59,0,0,0,9.09,9a.55.55,0,0,0,.16-.39A.54.54,0,0,0,9.1,8.2h0A.54.54,0,0,0,8.76,8Zm2.6,0h0a1.16,1.16,0,0,1,0,.18.47.47,0,0,1-.46.46h0a.4.4,0,0,1-.19,0,.56.56,0,0,0,1.11-.06.58.58,0,0,0-.15-.38h0A.49.49,0,0,0,11.37,8Zm-.9,6.51h0v.59a5.26,5.26,0,0,0,2-.55,2.37,2.37,0,0,0,1.34-2.64l-.66-3.4a1.38,1.38,0,0,1,.88-1.75l.11,0c.85-.15,1.39.61,1.43,1.41,0,.11,0,.25,0,.38h0a4.14,4.14,0,0,0,.05.79A1,1,0,0,0,16,9.9a.87.87,0,0,0,.27.14h0a.29.29,0,0,0,.18,0,.53.53,0,0,0,.22-.27l0,0a3.19,3.19,0,0,0,.2-2,3.62,3.62,0,0,0-1-1.88,2.15,2.15,0,0,0-.41-.32,1.26,1.26,0,0,0-1.7.2,2.07,2.07,0,0,0-.34.44.46.46,0,0,1-.81,0,2.53,2.53,0,0,0-1-1,3.52,3.52,0,0,0-3.16,0,2.59,2.59,0,0,0-1,1,.35.35,0,0,1-.15.17.46.46,0,0,1-.64-.15,2.48,2.48,0,0,0-.35-.45,1.26,1.26,0,0,0-1.7-.2,2.59,2.59,0,0,0-.42.32,3.67,3.67,0,0,0-1,1.88,3.08,3.08,0,0,0,.2,2h0a.57.57,0,0,0,.24.29.32.32,0,0,0,.19,0A.89.89,0,0,0,4,9.9a1,1,0,0,0,.31-.56,7.51,7.51,0,0,0,.07-1.17c0-.8.58-1.56,1.42-1.41a1.38,1.38,0,0,1,1,1.66l0,.12-.65,3.4a2.33,2.33,0,0,0,1.34,2.64h0a5.21,5.21,0,0,0,2,.55v-.59A1.91,1.91,0,0,1,9,14.28,3.68,3.68,0,0,1,8,13.46a3.23,3.23,0,0,1-.58-1c-.28-.86.27-1.41,1.14-1.69a4.74,4.74,0,0,1,2.79,0c.87.27,1.43.83,1.15,1.69a3.43,3.43,0,0,1-.58,1,3.88,3.88,0,0,1-.94.82,2.2,2.2,0,0,1-.56.26Zm-3.41.86h0a3.21,3.21,0,0,1-1.81-3.64l.65-3.42v0c.17-.66-.55-1-.59-.1a9.55,9.55,0,0,1-.08,1.3,1.9,1.9,0,0,1-.61,1.07,1.5,1.5,0,0,1-.69.37,1.2,1.2,0,0,1-.81-.1,1.56,1.56,0,0,1-.65-.74h0a4,4,0,0,1-.26-2.54A4.64,4.64,0,0,1,3.47,5.23a3.6,3.6,0,0,1,.58-.45,2.19,2.19,0,0,1,2.86.34L7,5.2a3.58,3.58,0,0,1,1-.79,4.4,4.4,0,0,1,2-.49,4.45,4.45,0,0,1,2,.49,3.68,3.68,0,0,1,1,.79l.06-.08A2.21,2.21,0,0,1,16,4.78a3.14,3.14,0,0,1,.57.45,4.54,4.54,0,0,1,1.27,2.34,4,4,0,0,1-.26,2.54l0,.05a1.5,1.5,0,0,1-.63.69,1.22,1.22,0,0,1-.82.1h0a1.51,1.51,0,0,1-.68-.37,2,2,0,0,1-.62-1.07,9.44,9.44,0,0,1-.07-1.3c0-.87-.77-.56-.59.1v0l.65,3.42A3.21,3.21,0,0,1,13,15.4a6.76,6.76,0,0,1-5.89,0Zm1.83-3.8h0c-.37.12-.62.3-.54.52a2.28,2.28,0,0,0,.41.75,2.77,2.77,0,0,0,.71.61.85.85,0,0,0,1.08,0h0a2.68,2.68,0,0,0,.69-.61,2.33,2.33,0,0,0,.43-.75c.07-.22-.18-.39-.55-.52a4,4,0,0,0-2.23,0ZM11.3,7.47h0a1.11,1.11,0,0,1,.78.33h0a1.11,1.11,0,0,1,0,1.55h0a1.1,1.1,0,0,1-1.56,0,1.11,1.11,0,0,1,0-1.57,1.2,1.2,0,0,1,.76-.31Z"/>
        </g>
    </g>
</svg>