<svg xmlns="http://www.w3.org/2000/svg" viewBox="0 0 20 20">
    <defs>
        <style>.cls-1{fill:none;}</style>
    </defs>
    <g id="Layer_2" data-name="Layer 2">
        <g id="Layer_1-2" data-name="Layer 1">
            <rect class="cls-1" width="20" height="20"/>
            <path d="M14.44,9.75h0a1.44,1.44,0,0,0-1-.13c-1.61.34-2.38,2.45-2.34,3.75a2.57,2.57,0,0,0,.73,1.87c.09,0,.19.16.29.22a1.4,1.4,0,0,0,1,.12,2.26,2.26,0,0,0,1.1-.61,4.26,4.26,0,0,0,1.25-3.14,2.43,2.43,0,0,0-1-2.08Zm-.66,3h0a.33.33,0,0,1-.45.13.29.29,0,0,1-.14-.41.33.33,0,0,1,.44-.14.3.3,0,0,1,.15.42Zm1,.71h0a.33.33,0,0,1-.44.14.3.3,0,0,1-.15-.42.35.35,0,0,1,.44-.14.3.3,0,0,1,.15.42Zm-1.33,1.25h0a.34.34,0,0,1-.44.14.3.3,0,0,1-.15-.42.34.34,0,0,1,.45-.14.31.31,0,0,1,.14.42ZM12,13.69h0a.32.32,0,0,1-.28-.36.35.35,0,0,1,.39-.26.32.32,0,0,1,.27.36.34.34,0,0,1-.38.26Zm-.16-1.49h0a.32.32,0,0,1,.28-.36.34.34,0,0,1,.38.26.33.33,0,0,1-.28.36.34.34,0,0,1-.38-.26Zm2.47-.78h0a.36.36,0,0,1,.46.13.32.32,0,0,1-.16.43.35.35,0,0,1-.44-.14.3.3,0,0,1,.14-.42Zm-.68-.76h0a.3.3,0,0,1,0,.44.35.35,0,0,1-.47,0,.28.28,0,0,1,0-.44.33.33,0,0,1,.47,0ZM6.22,3.44h0a.35.35,0,0,1,.47,0,.32.32,0,0,1,.08.33,3.91,3.91,0,0,0-.25,1.28c0,.13,0,.25,0,.37a4.35,4.35,0,0,1,5.33.39h0l0,0,3.57,3.35h0l.06.06h0a3.61,3.61,0,0,1,1,2.53A5.25,5.25,0,0,1,15,15.71a3.45,3.45,0,0,1-1.63.88,2.57,2.57,0,0,1-2.3-.62l-5-4.7a3.71,3.71,0,0,1-.41-5l-.39,0a5.17,5.17,0,0,0-1.39.23.33.33,0,0,1-.42-.2.3.3,0,0,1,.09-.33l2.68-2.5Zm-.34,1.2h0l-1.07,1,.45,0a3.6,3.6,0,0,1,.66.06,2.59,2.59,0,0,1-.07-.63c0-.13,0-.27,0-.41Zm7.4,4h0l-2.16-2,0,0h0a3.19,3.19,0,0,0-4.25,0h0a2.71,2.71,0,0,0,0,4l3.19,3v-.12c-.06-1.85,1.05-4.35,3.2-4.8Z"/>
        </g>
    </g>
</svg>