<svg xmlns="http://www.w3.org/2000/svg" viewBox="0 0 20 20">
    <defs>
        <style>.cls-1{fill:none;}</style>
    </defs>
    <g id="Layer_2" data-name="Layer 2">
        <g id="Layer_1-2" data-name="Layer 1">
            <rect class="cls-1" width="20" height="20"/>
            <path id="Path_3840" data-name="Path 3840" d="M4.43,7.06h9.93L7.9,4.26Zm9.65,4.13h0a.61.61,0,1,1-.61.61A.6.6,0,0,1,14.08,11.19ZM6,13.34H6a.61.61,0,1,1-.6.61h0A.6.6,0,0,1,6,13.34Zm4.37,0h0a.61.61,0,1,1-.6.61h0a.59.59,0,0,1,.59-.61Zm1-3.88h0a.6.6,0,0,1,0,1.2h0a.6.6,0,1,1,0-1.2ZM8,10.91H8a.61.61,0,0,1,.61.61.61.61,0,1,1-1.21,0A.6.6,0,0,1,8,10.91ZM5.07,9.46h0a.6.6,0,1,1-.6.6A.6.6,0,0,1,5.07,9.46ZM16.31,8.28h-13v7.55H16.66V15.4A1.75,1.75,0,0,1,16.25,13a2.46,2.46,0,0,1,.41-.44V11.27A1.77,1.77,0,0,1,15.76,9a1.83,1.83,0,0,1,.54-.69Zm1.16-1.19h0a.6.6,0,0,1,.41.58v.85a.59.59,0,0,1-.57.6.54.54,0,0,0-.46.61.53.53,0,0,0,.48.46.6.6,0,0,1,.55.62v2.12a.58.58,0,0,1-.4.57.54.54,0,0,0,0,1,.6.6,0,0,1,.37.56v1.38a.6.6,0,0,1-.6.61H2.72a.6.6,0,0,1-.6-.6h0V7.66a.54.54,0,0,1,.25-.48L7.43,3.09A.61.61,0,0,1,8,3l9.42,4.09Z"/>
        </g>
    </g>
</svg>