<svg xmlns="http://www.w3.org/2000/svg" viewBox="0 0 20 20">
    <defs>
        <style>.cls-1{fill:none;}</style>
    </defs>
    <g id="Layer_2" data-name="Layer 2">
        <g id="Layer_1-2" data-name="Layer 1">
            <rect class="cls-1" width="20" height="20"/>
            <path id="Path_3841" data-name="Path 3841" d="M15,6.19a.38.38,0,0,1-.19.48.36.36,0,0,1-.47-.18,4.42,4.42,0,0,0-.34-.6,3.69,3.69,0,0,0-1.66-1.34h0a3.68,3.68,0,0,0-1.43-.28l-.53,0A14.09,14.09,0,0,0,8.07,5.79a4.33,4.33,0,0,1,2.28.29h0A4.58,4.58,0,0,1,12.7,8.28a4.7,4.7,0,0,1,.41,1.43.38.38,0,0,1-.33.41.37.37,0,0,1-.39-.32A3.91,3.91,0,0,0,12,8.59a3.48,3.48,0,0,0-.73-1,3.7,3.7,0,0,0-1.21-.82h0a3.85,3.85,0,0,0-2.85,0A4.44,4.44,0,0,0,6.74,7c-.31.32-.61.66-.89,1a4,4,0,0,1,.6,0A4.53,4.53,0,0,1,9.61,9.28a4.42,4.42,0,0,1,1.29,2.79.36.36,0,0,1-.72.06,3.73,3.73,0,0,0-.33-1.27A3.82,3.82,0,0,0,9.1,9.79,3.78,3.78,0,0,0,7.89,9a3.7,3.7,0,0,0-2.37-.17l-.37.11c-.28.42-.55.84-.78,1.26a4.52,4.52,0,0,1,1.55.33H6a4.67,4.67,0,0,1,2.21,2,4.54,4.54,0,0,1,.44,1.18.37.37,0,0,1-.27.43h0a.37.37,0,0,1-.43-.28,3.53,3.53,0,0,0-.37-1A4,4,0,0,0,6.89,12a4,4,0,0,0-1.21-.81h0a3.9,3.9,0,0,0-1.43-.27H4a10.69,10.69,0,0,0-.46,1.23c-.44,1.58-.31,3,.5,3.77h0c.81.81,2.2,1,3.78.51a12.68,12.68,0,0,0,5.26-3.3h0l0,0a12.58,12.58,0,0,0,3.27-5.25c.44-1.57.31-2.95-.5-3.77h0c-.82-.82-2.19-.94-3.78-.5l-.24.08a4,4,0,0,1,.67.21h0a4.38,4.38,0,0,1,1.44,1,6.31,6.31,0,0,1,.53.63,5.07,5.07,0,0,1,.4.72Zm1.8-3h0c1.15,1.15,1.38,3,.81,5A13.76,13.76,0,0,1,14,13.94l0,0h0a14,14,0,0,1-5.79,3.61c-2,.55-3.82.33-5-.81h0c-1.15-1.15-1.38-3-.81-5A13.75,13.75,0,0,1,6,6.06L6,6H6a13.93,13.93,0,0,1,5.78-3.6c2-.57,3.82-.34,5,.8Z"/>
        </g>
    </g>
</svg>