<svg viewBox="0 0 20 20" fill="none"
    xmlns="http://www.w3.org/2000/svg" width="200" height="200">
    <path fill-rule="evenodd" clip-rule="evenodd" d="M5.52267 8.23953C4.3964 9.07108 3.76279 10.1694 3.76279 11.326C3.76279 11.4941 3.75853 11.6665 3.75496 11.8107C3.753 11.8899 3.75125 11.9606 3.75054 12.0174C3.74813 12.2086 3.75524 12.3066 3.76787 12.3642C3.76789 12.3643 3.76791 12.3644 3.76794 12.3645C3.78981 12.3748 3.83246 12.3914 3.90741 12.4093C4.21458 12.4823 4.76323 12.5121 5.77684 12.5158C6.25636 12.5176 6.81192 12.5141 7.46824 12.5099C8.18538 12.5053 9.02281 12.5 10.0128 12.5C11.8919 12.5 13.2484 12.4999 14.2334 12.4721C15.2375 12.4438 15.7861 12.3869 16.0899 12.2995C16.1925 12.27 16.2398 12.2441 16.2575 12.2327C16.2581 12.2306 16.2587 12.228 16.2594 12.225C16.2703 12.1777 16.2774 12.0953 16.2751 11.9287C16.2744 11.8818 16.2727 11.8202 16.2707 11.7505C16.2671 11.623 16.2628 11.4682 16.2628 11.326C16.2628 10.1694 15.6292 9.07108 14.5029 8.23953C13.3768 7.40811 11.7914 6.875 10.0128 6.875C8.2342 6.875 6.64875 7.40811 5.52267 8.23953ZM4.7802 7.23392C6.14238 6.22819 7.99443 5.625 10.0128 5.625C12.0312 5.625 13.8832 6.22819 15.2454 7.23392C16.6074 8.23952 17.5128 9.67921 17.5128 11.326C17.5128 11.4614 17.516 11.5668 17.5192 11.6738C17.5214 11.7485 17.5237 11.824 17.5249 11.9109C17.5275 12.0887 17.5248 12.3014 17.4771 12.5071C17.4251 12.7317 17.318 12.9568 17.1138 13.1452C16.9213 13.3228 16.6836 13.4294 16.4357 13.5007C15.9582 13.6382 15.2568 13.6938 14.2687 13.7216C13.2638 13.75 11.8896 13.75 10.025 13.75H10.0128C9.04771 13.75 8.20621 13.7553 7.48169 13.7598C6.81434 13.764 6.24624 13.7676 5.7722 13.7658C4.79362 13.7622 4.09226 13.7381 3.61818 13.6253C3.3709 13.5665 3.12267 13.4704 2.9199 13.2899C2.70365 13.0973 2.59705 12.8611 2.54679 12.6315C2.50082 12.4216 2.49817 12.1975 2.50064 12.0016C2.50178 11.9114 2.50393 11.8284 2.50611 11.7443C2.50942 11.617 2.51279 11.4871 2.51279 11.326C2.51279 9.67921 3.41821 8.23952 4.7802 7.23392Z" fill="black"/>
    <path fill-rule="evenodd" clip-rule="evenodd" d="M0.625 13.125C0.625 12.7798 0.904822 12.5 1.25 12.5H18.75C19.0952 12.5 19.375 12.7798 19.375 13.125C19.375 13.4702 19.0952 13.75 18.75 13.75H1.25C0.904822 13.75 0.625 13.4702 0.625 13.125Z" fill="black"/>
    <path fill-rule="evenodd" clip-rule="evenodd" d="M1.43306 12.6831C1.67714 12.439 2.07286 12.439 2.31694 12.6831L4.00888 14.375H15.9911L17.6831 12.6831C17.9271 12.439 18.3229 12.439 18.5669 12.6831C18.811 12.9271 18.811 13.3229 18.5669 13.5669L16.5089 15.625H3.49112L1.43306 13.5669C1.18898 13.3229 1.18898 12.9271 1.43306 12.6831Z" fill="black"/>
    <path fill-rule="evenodd" clip-rule="evenodd" d="M10 4.375C10.3452 4.375 10.625 4.65482 10.625 5L10.625 5.625C10.625 5.97018 10.3452 6.25 10 6.25C9.65482 6.25 9.375 5.97018 9.375 5.625L9.375 5C9.375 4.65482 9.65482 4.375 10 4.375Z" fill="black"/>
</svg>