<svg xmlns="http://www.w3.org/2000/svg" viewBox="0 0 20 20">
    <defs>
        <style>.cls-1{fill:none;}</style>
    </defs>
    <g id="Layer_2" data-name="Layer 2">
        <g id="Layer_1-2" data-name="Layer 1">
            <rect class="cls-1" width="20" height="20"/>
            <g id="Path_3885" data-name="Path 3885">
                <g id="Group_3827" data-name="Group 3827">
                    <path id="Path_3887" data-name="Path 3887" d="M9.41,7.78a1.48,1.48,0,0,0,0,3h0a1.48,1.48,0,1,0,0-2.95Zm0,2.2a.73.73,0,0,1,0-1.45.73.73,0,0,1,0,1.45Z"/>
                </g>
                <g id="Group_3828" data-name="Group 3828">
                    <path id="Path_3888" data-name="Path 3888" d="M14.13,5.42a15,15,0,0,0-5.72-3.3l-2.8,7-.34.94-.46,1.14-.34.85L4,13.35l-.34.85-.46,1.22-.34.81-.64,1.65,5.51-2.24,2.29-1,2.08-.85.76-.33s0,0,0,0l1.36-.56.8-.34,2.8-1.14A19.24,19.24,0,0,0,14.13,5.42Zm-8,4.83a.77.77,0,0,1,.25.6.82.82,0,0,1-.8.8ZM3.92,15.81l.51-1.4a.76.76,0,0,1,.25.59.83.83,0,0,1-.76.81ZM7.77,14.7a1.18,1.18,0,0,1-.17-.55.83.83,0,0,1,.79-.85h0a.85.85,0,0,1,.85.81Zm4.83-2a.82.82,0,0,1,.81-.64.7.7,0,0,1,.42.13Zm.81-1.48a1.65,1.65,0,0,0-1.65,1.67v0a.16.16,0,0,0,0,.13L10,13.77a1.62,1.62,0,0,0-1.92-1.24,1.74,1.74,0,0,0-.8.43,1.79,1.79,0,0,0-.38.56A1.63,1.63,0,0,0,7,15l-1.65.72A2,2,0,0,0,5.53,15a1.66,1.66,0,0,0-.76-1.4l.46-1.14a.78.78,0,0,0,.3,0,1.69,1.69,0,0,0,1.65-1.65,1.62,1.62,0,0,0-.76-1.4L7.94,5.51A8.37,8.37,0,0,1,11.8,7.92,11,11,0,0,1,14,11.35a1.48,1.48,0,0,0-.59-.12Zm-1-3.86A9.3,9.3,0,0,0,8.29,4.7l.59-1.53A13.15,13.15,0,0,1,13.54,6a16.94,16.94,0,0,1,3.18,5l-1.7.72a10.88,10.88,0,0,0-2.63-4.35Z"/>
                </g>
            </g>
        </g>
    </g>
</svg>