<svg xmlns="http://www.w3.org/2000/svg" viewBox="0 0 20 20">
    <defs>
        <style>.cls-1{fill:none;}</style>
    </defs>
    <g id="Layer_2" data-name="Layer 2">
        <g id="Layer_1-2" data-name="Layer 1">
            <rect class="cls-1" width="20" height="20"/>
            <g id="Group_6261-2" data-name="Group 6261-2">
                <path id="Path_3843" data-name="Path 3843" d="M4.44,3.22a.61.61,0,0,1-.61-.61A.61.61,0,0,1,4.44,2H8.36a.6.6,0,0,1,.6.61.61.61,0,0,1-.6.61Zm-1.64,6h0v0c0-1.3,1-1.57,1-2.77V4.37a.61.61,0,0,1,.61-.61H8.36A.62.62,0,0,1,9,4.37V6.43c0,1.21,1,1.48,1,2.79v7.94a.62.62,0,0,1-.6.61h-6a.61.61,0,0,1-.61-.61V9.22ZM4,9.2H4v7.35H8.78V9.22c0-1.07-1-1.41-1-2.79V5H5V6.43C5,7.81,4,8.14,4,9.2Z"/>
                <path id="Path_3844" data-name="Path 3844" d="M17.2,12.61h0a4.26,4.26,0,0,1-1.87,3.51,2.86,2.86,0,0,1,.3.22,4.05,4.05,0,0,1,.85.95.44.44,0,0,1-.12.62h0a.42.42,0,0,1-.26.08H9.79a.46.46,0,0,1-.46-.45.48.48,0,0,1,.1-.29,4.81,4.81,0,0,1,.83-.91c.11-.08.2-.16.3-.22A4.29,4.29,0,0,1,8.7,12.61a.47.47,0,0,1,.45-.47A10.54,10.54,0,0,1,10.29,8a2.82,2.82,0,0,1,5.32,0,10.89,10.89,0,0,1,1.14,4.14.47.47,0,0,1,.44.47Zm-7.14-.46h5.78a9.83,9.83,0,0,0-1-3.71,1.94,1.94,0,0,0-3.74,0,9.83,9.83,0,0,0-1,3.71ZM14,7.86h0a.28.28,0,0,1,0,.38.26.26,0,0,1-.37,0h0a.82.82,0,0,0-1.16-.09l-.09.09a2.11,2.11,0,0,0-.3.37,5,5,0,0,0-.27.51,5.48,5.48,0,0,0-.23.56c-.08.21-.14.43-.2.64a.28.28,0,0,1-.36.15.28.28,0,0,1-.17-.29A5.54,5.54,0,0,1,11,9.49c.07-.21.15-.41.23-.6a6.65,6.65,0,0,1,.33-.58,2.54,2.54,0,0,1,.36-.45,1.37,1.37,0,0,1,1.93-.1l.09.1Zm1.75,6.61h0a3.24,3.24,0,0,0,.54-1.41H9.64A3.32,3.32,0,0,0,11.7,15.7a.47.47,0,0,1,.24.61.51.51,0,0,1-.24.24,3.22,3.22,0,0,0-.86.5l0,0h4.29l0,0a3.22,3.22,0,0,0-.86-.5h0a.47.47,0,0,1-.24-.61.43.43,0,0,1,.24-.24,3.34,3.34,0,0,0,1.52-1.23Z"/>
            </g>
        </g>
    </g>
</svg>