<svg xmlns="http://www.w3.org/2000/svg" viewBox="0 0 20 20">
    <defs>
        <style>.cls-1{fill:none;}</style>
    </defs>
    <g id="Layer_2" data-name="Layer 2">
        <g id="Layer_1-2" data-name="Layer 1">
            <rect class="cls-1" width="20" height="20"/>
            <path id="Path_3845" data-name="Path 3845" d="M9.63,2.49a.38.38,0,0,1,.75,0h0V4.3l1.23-1.22a.36.36,0,0,1,.5,0l0,0a.37.37,0,0,1,0,.52h0L10.38,5.36v1.8l1.9-1.9a.41.41,0,0,1,.59,0,.43.43,0,0,1,.1.34l-.71,2.6,1.56-.9L14.47,5a.37.37,0,0,1,.47-.24.36.36,0,0,1,.25.44l-.45,1.67,1.58-.91a.38.38,0,0,1,.37.65l-1.58.91,1.67.45a.38.38,0,0,1,.27.46.38.38,0,0,1-.46.26L14.2,8l-1.56.9,2.6.7a.41.41,0,0,1,0,.78l-2.6.7L14.2,12l2.39-.65a.38.38,0,0,1,.46.27.37.37,0,0,1-.25.46h0l-1.68.45,1.58.91a.37.37,0,0,1,.14.5h0a.37.37,0,0,1-.5.14h0l-1.58-.91.45,1.68a.38.38,0,0,1-.29.45.37.37,0,0,1-.43-.25l-.65-2.41-1.56-.9.7,2.6a.37.37,0,0,1-.2.43.38.38,0,0,1-.49,0l-1.9-1.9v1.81l1.76,1.75a.37.37,0,0,1-.53.53l-1.23-1.22v1.82a.38.38,0,0,1-.37.37.37.37,0,0,1-.37-.37V15.68L8.4,16.91a.37.37,0,0,1-.52,0h0a.36.36,0,0,1,0-.51l0,0,1.76-1.75V12.82l-1.91,1.9a.41.41,0,0,1-.67-.39l.69-2.6-1.56.9L5.54,15a.37.37,0,0,1-.45.26h0a.37.37,0,0,1-.26-.44v0l.45-1.68-1.58.91a.37.37,0,0,1-.51-.14.37.37,0,0,1,.14-.5l1.57-.91-1.67-.46a.37.37,0,0,1-.28-.44H3a.39.39,0,0,1,.46-.28L5.82,12l1.55-.9-2.59-.7A.4.4,0,0,1,4.49,10a.41.41,0,0,1,.29-.4L7.37,8.9,5.81,8l-2.4.64A.38.38,0,0,1,3,8.37a.39.39,0,0,1,.26-.46l1.68-.44L3.32,6.56a.37.37,0,0,1,.37-.65l1.57.91L4.82,5.14a.39.39,0,0,1,.25-.46h0A.38.38,0,0,1,5.54,5l.64,2.4,1.56.9L7,5.65a.42.42,0,0,1,.68-.39l1.91,1.9V5.36L7.87,3.6a.37.37,0,1,1,.53-.52h0L9.63,4.3V2.48ZM13.8,10h0l-2.09-.56-1,.56,1,.56Zm-3.42.65h0v1.12l1.52,1.52-.55-2.08-1-.56ZM6.2,10h0l2.09.56,1-.56-1-.56L6.2,10Zm3.43-.63h0V8.23L8.11,6.71l.55,2.08ZM11.9,6.71h0L10.38,8.23V9.36l1-.57.55-2.08ZM8.11,13.28h0l1.52-1.52V10.64l-1,.55-.55,2.09Z"/>
        </g>
    </g>
</svg>