<svg width="32" height="32" viewBox="0 0 32 32" fill="none"
    xmlns="http://www.w3.org/2000/svg">
    <path fill-rule="evenodd" clip-rule="evenodd" d="M3 5a1 1 0 0 1 1-1h2a1 1 0 0 1 .986.836L9.48 19.794c.196.748.55 1.148.888 1.374a2.07 2.07 0 0 0 1.176.333l11.5.5a1 1 0 0 1-.086 1.998l-11.48-.5a4.07 4.07 0 0 1-2.22-.667c-.78-.52-1.42-1.362-1.727-2.59a.997.997 0 0 1-.016-.078L5.153 6H4a1 1 0 0 1-1-1Z" fill="current">
    </path>
    <path fill-rule="evenodd" clip-rule="evenodd" d="M5.735 7.356A1 1 0 0 1 6.5 7H26c.77 0 1.329.484 1.628.954.301.475.465 1.116.315 1.747l-2.003 8.375c-.2.84-.915 1.49-1.81 1.545h-.005l-15.569.877a1 1 0 0 1-1.041-.827l-2-11.5a1 1 0 0 1 .22-.815ZM7.689 9l1.644 9.451 14.656-.826a.059.059 0 0 0 .006-.014l2.002-8.375m-2.012 8.396ZM7.69 9H25.92 7.689ZM12 24a1 1 0 1 0 0 2 1 1 0 0 0 0-2Zm-3 1a3 3 0 1 1 6 0 3 3 0 0 1-6 0ZM23 24a1 1 0 1 0 0 2 1 1 0 0 0 0-2Zm-3 1a3 3 0 1 1 6 0 3 3 0 0 1-6 0Z" fill="current">
    </path>
</svg>
                                