<svg width="32" height="32" viewBox="0 0 32 32" fill="none"
    xmlns="http://www.w3.org/2000/svg">
    <path fill-rule="evenodd" clip-rule="evenodd" d="M27.6 25.6a2 2 0 0 1-2 2h-6.8a2 2 0 0 1-2-2v-6.8a2 2 0 0 1 2-2h6.8a2 2 0 0 1 2 2v6.8Zm-8.8 0h6.8v-6.8h-6.8v6.8ZM27.6 12.8a2 2 0 0 1-2 2h-6.8a2 2 0 0 1-2-2V6a2 2 0 0 1 2-2h6.8a2 2 0 0 1 2 2v6.8Zm-8.8 0h6.8V6h-6.8v6.8ZM14.8 25.6a2 2 0 0 1-2 2H6a2 2 0 0 1-2-2v-6.8a2 2 0 0 1 2-2h6.8a2 2 0 0 1 2 2v6.8Zm-8.8 0h6.8v-6.8H6v6.8ZM14.8 9.4A5.4 5.4 0 1 1 4 9.4a5.4 5.4 0 0 1 10.8 0Zm-5.4 3.4a3.4 3.4 0 1 0 0-6.8 3.4 3.4 0 0 0 0 6.8Z" fill="current"></path>
</svg>