<svg xmlns="http://www.w3.org/2000/svg" width="24" height="24" viewBox="0 0 400 400" fill="current">
    <path d="M149.386.706c-5.281.823-7.503 1.707-26.886 10.695-5.5 2.551-11.933 5.493-14.295 6.538-16.884 7.474-23.806 15.318-30.23 34.261-9.456 27.885-7.882 76.336 3.96 121.9 5.747 22.11 15.701 49.716 25.675 71.2 26.695 57.506 76.063 115.662 114.09 134.401 24.264 11.957 37.923 12.741 57.4 3.295 6.906-3.349 12.739-5.967 26.6-11.936 3.19-1.374 6.385-2.82 7.1-3.214 12.707-6.995 17.16-19.672 11.521-32.794-5.39-12.544-6.859-15.853-13.119-29.552-5.877-12.861-9.154-20.177-12.015-26.823-5.229-12.147-10.692-17.137-20.564-18.784-6.874-1.146-12.216-.001-24.923 5.346-13.772 5.794-19.913 8.623-27.633 12.728-1.987 1.056-3.834 1.541-5.072 1.332-.863-.146-2.595-1.166-2.595-1.529 0-.131-3.409-3.665-7.576-7.854-7.891-7.932-8.193-8.283-12.759-14.816-17.208-24.622-31.268-53.585-39.757-81.9-5.92-19.746-7.672-28.679-7.737-39.451-.038-6.222-.523-5.753 10.902-10.531 19.174-8.019 28.897-12.883 34.627-17.322 10.899-8.445 13.612-21.508 7.059-33.996-2.588-4.932-4.72-9.42-7.459-15.7-1.511-3.465-3.318-7.515-4.015-9-.698-1.485-1.78-4.095-2.404-5.8-2.864-7.817-11.72-26.577-14.328-30.35C169.334 2.921 159.834-.923 149.386.706m8.814 13.593c4.179 1.424 5.744 3.363 10.578 13.101 3.631 7.314 5.061 10.489 8.047 17.867 2.894 7.152 9.184 21.321 12.487 28.133 3.483 7.181 3.939 8.527 3.967 11.7.075 8.511-5.964 12.96-33.579 24.739-13.102 5.589-17.145 8.81-20.117 16.028-7.12 17.293 9.706 73.364 34.983 116.577 10.569 18.069 16.508 26.074 27.418 36.958 9.587 9.565 13.131 11.503 21.016 11.494 5.296-.006 6.765-.454 15.91-4.853 11.807-5.68 26.47-11.72 30.99-12.765 3.457-.8 7.708-.394 10.1.964 3.468 1.97 4.849 4.108 9.402 14.558 1.126 2.585 4.953 11.09 8.503 18.9 13.586 29.886 15.18 33.767 15.427 37.566.315 4.846-2.235 8.526-7.999 11.541-2.076 1.087-2.689 1.363-12.633 5.699-3.96 1.727-9 3.975-11.2 4.996-2.2 1.021-5.953 2.765-8.34 3.875-15.427 7.174-23.871 6.67-44.073-2.633-35.253-16.233-84.447-74.143-109.791-129.244-13.065-28.402-24.147-61.871-29.173-88.1-5.546-28.943-6.751-61.97-3.005-82.396 1.793-9.777 5.462-19.973 9.287-25.804 4.203-6.408 7.958-9.208 19.165-14.287a3367.9 3367.9 0 0 0 14.8-6.798c18.708-8.64 22.385-9.673 27.83-7.816"></path>
</svg>