<svg class="star-holder" viewBox="0 0 80 16" fill="none"
    xmlns="http://www.w3.org/2000/svg">
    <path fill-rule="evenodd" clip-rule="evenodd" d="M80 0H0V16H80V0ZM8.47579 1.46366C8.32611 1.003 7.67441 1.003 7.52473 1.46365L6.3164 5.1825C6.24946
								5.38851 6.05749 5.528 5.84087 5.528H1.93065C1.44629 5.528 1.2449 6.1478 1.63675 6.4325L4.80019
								8.73088C4.97544 8.8582 5.04877 9.08388 4.98183 9.2899L3.7735 13.0087C3.62383 13.4694 4.15107 13.8525
								4.54292 13.5678L7.70636 11.2694C7.88161 11.1421 8.11891 11.1421 8.29415 11.2694L11.4576 13.5678C11.8494
								13.8525 12.3767 13.4694 12.227 13.0087L11.0187 9.28989C10.9517 9.08388 11.0251 8.8582 11.2003
								8.73088L14.3638 6.4325C14.7556 6.1478 14.5542 5.528 14.0699 5.528H10.1596C9.94303 5.528 9.75105 5.38851
								9.68411 5.1825L8.47579 1.46366ZM24.4758 1.46366C24.3261 1.003 23.6744 1.003 23.5247 1.46365L22.3164
								5.1825C22.2495 5.38851 22.0575 5.528 21.8409 5.528H17.9306C17.4463 5.528 17.2449 6.1478 17.6368
								6.4325L20.8002 8.73088C20.9754 8.8582 21.0488 9.08388 20.9818 9.2899L19.7735 13.0087C19.6238 13.4694
								20.1511 13.8525 20.5429 13.5678L23.7064 11.2694C23.8816 11.1421 24.1189 11.1421 24.2941 11.2694L27.4576
								13.5678C27.8494 13.8525 28.3767 13.4694 28.227 13.0087L27.0187 9.28989C26.9517 9.08388 27.0251 8.8582
								27.2003 8.73088L30.3638 6.4325C30.7556 6.1478 30.5542 5.528 30.0699 5.528H26.1596C25.943 5.528 25.751
								5.38851 25.6841 5.1825L24.4758 1.46366ZM39.5247 1.46365C39.6744 1.003 40.3261 1.003 40.4758
								1.46366L41.6841 5.1825C41.751 5.38851 41.943 5.528 42.1596 5.528H46.0699C46.5542 5.528 46.7556 6.1478
								46.3638 6.4325L43.2003 8.73088C43.0251 8.8582 42.9517 9.08388 43.0187 9.28989L44.227 13.0087C44.3767
								13.4694 43.8494 13.8525 43.4576 13.5678L40.2942 11.2694C40.1189 11.1421 39.8816 11.1421 39.7064
								11.2694L36.5429 13.5678C36.1511 13.8525 35.6238 13.4694 35.7735 13.0087L36.9818 9.2899C37.0488
								9.08388 36.9754 8.8582 36.8002 8.73088L33.6368 6.4325C33.2449 6.1478 33.4463 5.528 33.9306
								5.528H37.8409C38.0575 5.528 38.2495 5.38851 38.3164 5.1825L39.5247 1.46365ZM56.4758 1.46366C56.3261
								1.003 55.6744 1.003 55.5247 1.46365L54.3164 5.1825C54.2495 5.38851 54.0575 5.528 53.8409
								5.528H49.9306C49.4463 5.528 49.2449 6.1478 49.6367 6.4325L52.8002 8.73088C52.9754 8.8582 53.0488
								9.08388 52.9818 9.2899L51.7735 13.0087C51.6238 13.4694 52.1511 13.8525 52.5429 13.5678L55.7064
								11.2694C55.8816 11.1421 56.1189 11.1421 56.2941 11.2694L59.4576 13.5678C59.8494 13.8525 60.3767
								13.4694 60.227 13.0087L59.0187 9.28989C58.9517 9.08388 59.0251 8.8582 59.2003 8.73088L62.3638
								6.4325C62.7556 6.1478 62.5542 5.528 62.0699 5.528H58.1596C57.943 5.528 57.751 5.38851 57.6841
								5.1825L56.4758 1.46366ZM71.5247 1.46365C71.6744 1.003 72.3261 1.003 72.4758 1.46366L73.6841
								5.1825C73.751 5.38851 73.943 5.528 74.1596 5.528H78.0699C78.5542 5.528 78.7556 6.1478 78.3638
								6.4325L75.2003 8.73088C75.0251 8.8582 74.9517 9.08388 75.0187 9.28989L76.227 13.0087C76.3767
								13.4694 75.8494 13.8525 75.4576 13.5678L72.2942 11.2694C72.1189 11.1421 71.8816 11.1421 71.7064
								11.2694L68.5429 13.5678C68.1511 13.8525 67.6238 13.4694 67.7735 13.0087L68.9818 9.2899C69.0488
								9.08388 68.9754 8.8582 68.8002 8.73088L65.6367 6.4325C65.2449 6.1478 65.4463 5.528 65.9306
								5.528H69.8409C70.0575 5.528 70.2495 5.38851 70.3164 5.1825L71.5247 1.46365Z"></path>
</svg>